HIERARCHY
ROOT Hips
{
	OFFSET 0.00000 0.00000 0.00000
	CHANNELS 6 Xposition Yposition Zposition Yrotation Zrotation Xrotation 
	JOINT Lumbar
	{
		OFFSET 0 0 0
		CHANNELS 3 Zrotation Xrotation Yrotation
		JOINT Neck
		{
			OFFSET 0.00 0.2701 0.00
			CHANNELS 3 Zrotation Xrotation Yrotation
			End Site
			{
				OFFSET 0.00 0.1379 0.00
			}
		}
		JOINT RightShoulder
		{
			OFFSET 0.0119 0.2289 0.1181
			CHANNELS 3 Zrotation Xrotation Yrotation
			JOINT RightElbow
			{
				OFFSET 0.00 -0.1475 0.00
				CHANNELS 2 Zrotation Yrotation
				JOINT RightWrist
				{
					OFFSET 0.00 -0.1605 0.00
					CHANNELS 2 Zrotation Xrotation
					End Site
					{
						OFFSET 0.0040 -0.1068 0.0006
					}
				}
			}
		}
		JOINT LeftShoulder
		{
			OFFSET 0.0119 0.2289 -0.1181
			CHANNELS 3 Zrotation Xrotation Yrotation
			JOINT LeftElbow
			{
				OFFSET 0.00 -0.1475 0.00
				CHANNELS 2 Zrotation Yrotation
				JOINT LeftWrist
				{
					OFFSET 0.00 -0.1605 0.00
					CHANNELS 2 Zrotation Xrotation
					End Site
					{
						OFFSET 0.0040 -0.1068 -0.0006
					}
				}
			}
		}
	}
	JOINT RightHip
	{
		OFFSET 0.0316 -0.0424 0.0458
		CHANNELS 3 Zrotation Xrotation Yrotation
		JOINT RightKnee
		{
			OFFSET 0.00 -0.2438 0.00
			CHANNELS 1 Zrotation
			JOINT RightAnkle
			{
				OFFSET 0.00 -0.2449 0.00
				CHANNELS 3 Zrotation Xrotation Yrotation
				End Site
				{
					OFFSET 0.1237 -0.0542 0.0051
				}
			}
		}
	}
	JOINT LeftHip
	{
		OFFSET 0.0316 -0.0424 -0.0458
		CHANNELS 3 Zrotation Xrotation Yrotation
		JOINT LeftKnee
		{
			OFFSET 0.00 -0.2438 0.00
			CHANNELS 1 Zrotation
			JOINT LeftAnkle
			{
				OFFSET 0.00 -0.2449 0.00
				CHANNELS 3 Zrotation Xrotation Yrotation
				End Site
				{
					OFFSET 0.1237 -0.0542 -0.0051
				}
			}
		}
	}
}
MOTION
Frames: 28
Frame Time: 0.02
0.22234 0.57691 0.09303 841.27493 0 -6.28848 -24.29947 9.60628 -2.84479 -11.13048 5.48738 0.09593 36.24981 -16.41366 17.01261 15.66063 80.65058 -6.38544 -4.42614 35.53882 5.41042 -5.59479 11.13475 -84.07511 -10.41049 4.0096 10.53492 10.19015 6.31565 -18.26999 -1.15151 -3.52428 -10.79016 11.91516 4.60718 5.42284 -23.74645 8.13287 6.56293 11.09812
0.22301 0.57667 0.09583 840.32528 0 -6.45352 -25.90532 9.73756 -2.16305 -11.2243 5.51468 -0.04074 36.90211 -16.21344 17.50694 15.64792 80.78792 -6.37561 -4.48979 36.18394 5.06785 -6.62697 11.39331 -84.02308 -10.4232 4.22518 10.4696 10.23506 6.8731 -17.5456 -1.51664 -3.40729 -10.29728 12.2541 4.76265 5.71811 -24.05741 8.10675 6.58705 11.78595
0.22383 0.57635 0.0985 839.43105 0 -6.62969 -27.55937 9.85017 -1.40635 -11.28822 5.59283 -0.23129 37.55455 -16.04382 17.79238 15.54246 80.8706 -6.34604 -4.49788 36.78479 4.63129 -7.652 11.63777 -83.71328 -10.3828 4.52335 10.49111 10.33276 8.4904 -16.95134 -1.66352 -3.30054 -9.56024 12.64652 4.93408 5.8844 -24.45152 8.09754 6.59969 12.55545
0.22458 0.57607 0.10122 838.52067 0 -6.79835 -29.19474 9.96952 -0.70713 -11.35465 5.65128 -0.38713 38.20016 -15.86359 18.17705 15.48183 80.97277 -6.32756 -4.53257 37.39133 4.23489 -8.66414 11.88754 -83.57413 -10.37018 4.77741 10.47109 10.40813 9.58655 -16.29991 -1.90955 -3.1876 -9.00493 13.0127 5.09937 6.12139 -24.80445 8.08246 6.6168 13.2681
0.22534 0.5758 0.10398 837.57486 0 -6.97832 -30.81746 10.09703 0.09288 -11.46975 5.69834 -0.58582 38.87386 -15.67344 18.54027 15.40706 81.09448 -6.30006 -4.56097 38.05788 3.84329 -9.76233 12.14295 -83.22173 -10.34039 5.05544 10.45314 10.4764 10.84932 -15.62744 -2.16281 -3.06985 -8.14328 13.38862 5.26166 6.30669 -25.17305 8.05975 6.63571 14.0629
0.22611 0.57548 0.10662 836.71438 0 -7.13635 -32.47758 10.20169 0.70006 -11.47317 5.77871 -0.70778 39.48687 -15.50914 18.8991 15.34126 81.16484 -6.28659 -4.58944 38.58827 3.42281 -10.67337 12.38326 -83.2414 -10.33424 5.30468 10.45489 10.5705 12.01159 -15.03575 -2.34692 -2.96891 -7.85088 13.75576 5.4329 6.56923 -25.52788 8.05683 6.64867 14.70652
0.22688 0.57508 0.10897 836.08373 0 -7.23929 -34.22927 10.2617 0.75605 -11.20665 5.95522 -0.60989 39.96324 -15.41554 19.30559 15.31681 81.09211 -6.31815 -4.63244 38.76725 2.93142 -11.06046 12.58004 -84.42657 -10.4087 5.45315 10.47948 10.74251 12.70483 -14.62109 -2.38753 -2.91166 -9.36351 14.09284 5.63036 7.07724 -25.82882 8.10598 6.64802 14.91142
0.22766 0.57465 0.11119 835.53557 0 -7.31827 -36.01653 10.29703 0.61545 -10.82368 6.16034 -0.43227 40.37414 -15.34525 19.71366 15.30586 80.97238 -6.36436 -4.67737 38.80947 2.41742 -11.25816 12.76261 -85.9806 -10.50856 5.57033 10.52348 10.93565 13.25091 -14.28751 -2.36615 -2.87255 -11.43063 14.41767 5.83507 7.66734 -26.112 8.17425 6.64198 14.9617
0.22844 0.57423 0.11345 834.94394 0 -7.40271 -37.78765 10.33436 0.56448 -10.47296 6.34108 -0.2876 40.79393 -15.25918 20.1161 15.29331 80.88427 -6.40283 -4.72105 38.90436 1.9239 -11.54609 12.95524 -87.31533 -10.59562 5.70335 10.56637 11.10618 13.81782 -13.92778 -2.37594 -2.82695 -13.13071 14.7433 6.03273 8.21965 -26.40035 8.23266 6.63855 15.08378
0.22924 0.5738 0.11578 834.3785 0 -7.51016 -39.56145 10.40909 0.51387 -10.20595 6.57105 -0.15781 41.29782 -15.19563 20.53261 15.25911 80.75165 -6.44482 -4.7644 39.03359 1.38445 -11.81771 13.13324 -88.85792 -10.68635 5.83321 10.58028 11.33208 14.60639 -13.52726 -2.36546 -2.77433 -15.29844 15.09129 6.24687 8.76982 -26.70418 8.29635 6.63394 15.20235
0.22997 0.57339 0.11793 833.77866 0 -7.56424 -41.33609 10.40136 0.4162 -9.74047 6.70537 0.02152 41.61595 -15.09094 20.92208 15.27345 80.70033 -6.48365 -4.80954 39.06452 0.93588 -12.07685 13.33723 -90.06026 -10.77584 5.96008 10.65721 11.44869 14.8966 -13.22925 -2.38545 -2.74025 -16.63849 15.38865 6.42815 9.34523 -26.9701 8.35369 6.63075 15.29029
0.23052 0.573 0.11962 833.05201 0 -7.47305 -43.11387 10.16251 0.22616 -8.73781 6.56211 0.32903 41.4037 -14.86375 21.24575 15.42645 80.89329 -6.5063 -4.85955 38.82354 0.74771 -12.3609 13.62566 -90.21639 -10.8575 6.09495 10.91028 11.24337 13.73813 -13.19432 -2.50461 -2.75602 -15.46124 15.55238 6.51704 9.97463 -27.13798 8.38582 6.63227 15.33243
0.23099 0.57262 0.12113 832.28957 0 -7.3295 -44.88775 9.84306 -0.00159 -7.54937 6.3228 0.68284 41.01917 -14.59655 21.54215 15.62606 81.16816 -6.5258 -4.9111 38.50169 0.64988 -12.63721 13.9378 -90.02021 -10.93603 6.22568 11.22415 10.92978 12.09814 -13.25881 -2.65794 -2.78919 -13.45128 15.66442 6.57239 10.62667 -27.26715 8.41128 6.63559 15.34843
0.23147 0.57225 0.12271 831.55117 0 -7.21246 -46.65881 9.56726 -0.2072 -6.44943 6.13111 1.00733 40.72762 -14.34741 21.8452 15.8006 81.40066 -6.54974 -4.96245 38.23072 0.51073 -12.90753 14.23472 -89.99932 -11.01624 6.35252 11.50557 10.67547 10.74449 -13.27772 -2.79651 -2.81242 -11.88669 15.7982 6.64307 11.26578 -27.41255 8.44178 6.63851 15.3755
0.23204 0.57185 0.12436 830.78376 0 -7.08356 -48.45663 9.26237 -0.44603 -5.30152 5.92263 1.36554 40.34652 -14.09245 22.16973 15.99514 81.65421 -6.56269 -5.0133 37.86745 0.37866 -13.20829 14.55517 -89.93326 -11.10003 6.50352 11.80909 10.37979 9.10146 -13.30266 -2.92851 -2.84504 -10.05803 15.94025 6.71409 11.91778 -27.56451 8.46484 6.63944 15.40099
0.23241 0.5715 0.12581 830.06604 0 -6.96669 -50.18968 8.99745 -0.61543 -4.24443 5.72726 1.66845 40.14356 -13.84877 22.44643 16.15495 81.88274 -6.59609 -5.06357 37.71391 0.24505 -13.45015 14.82583 -89.86506 -11.17053 6.60257 12.07945 10.14378 7.94847 -13.33575 -3.08444 -2.86174 -8.57526 16.05136 6.77579 12.54856 -27.69212 8.50108 6.64501 15.42514
0.23232 0.57122 0.12679 829.50432 0 -6.90098 -51.81006 8.87905 -0.64577 -3.19456 5.57779 1.75504 40.20145 -13.5556 22.57227 16.24153 82.03414 -6.6992 -5.12895 37.85714 0.1725 -13.49998 15.01257 -89.9435 -11.24827 6.56866 12.2545 10.10302 8.2648 -13.38239 -3.28719 -2.83247 -8.24018 16.10334 6.82475 13.10326 -27.77681 8.57951 6.66313 15.45622
0.23205 0.57098 0.12757 828.99186 0 -6.84851 -53.3532 8.80133 -0.59642 -2.29491 5.44571 1.78728 40.49399 -13.28249 22.65786 16.28514 82.15627 -6.82036 -5.19057 38.26818 0.08883 -13.4983 15.13946 -90.01855 -11.30627 6.48145 12.39197 10.12512 9.0903 -13.4307 -3.51488 -2.78619 -8.2798 16.12359 6.86463 13.63723 -27.83587 8.67066 6.6859 15.48688
0.23184 0.57074 0.12842 828.44946 0 -6.78653 -54.88851 8.69358 -0.53692 -1.51936 5.31656 1.8865 40.86104 -13.07135 22.77578 16.32596 82.28325 -6.92534 -5.24261 38.75949 -0.05933 -13.54077 15.25222 -90.04879 -11.3427 6.41198 12.53916 10.11577 9.68639 -13.46747 -3.7391 -2.74593 -8.15428 16.14931 6.90537 14.18868 -27.89672 8.75299 6.7064 15.51569
0.23169 0.57044 0.12935 827.93652 0 -6.73682 -56.60425 8.62921 -0.65812 0.06603 5.14472 1.8354 40.46514 -12.59744 22.82448 16.46253 82.44572 -7.0649 -5.34208 38.40818 0.04921 -13.49239 15.53166 -90.25933 -11.50097 6.36783 12.7193 10.11505 10.26358 -13.55244 -3.93271 -2.71295 -7.98432 16.21053 6.95839 14.7087 -27.99689 8.84746 6.72743 15.55192
0.23137 0.57026 0.13006 827.37594 0 -6.66618 -57.92678 8.48833 -0.40417 -0.06235 5.05916 2.05062 41.70645 -12.62756 23.01946 16.38899 82.53006 -7.13549 -5.3422 39.86026 -0.33053 -13.62473 15.46024 -90.10226 -11.40964 6.26074 12.82141 10.11241 10.99934 -13.53716 -4.19375 -2.66124 -7.99921 16.19151 6.98453 15.28674 -28.01074 8.92033 6.74866 15.57316
0.23062 0.57039 0.13019 826.65841 0 -6.52804 -58.17404 8.09918 1.048 -4.98238 5.27995 3.30725 47.49433 -14.47366 23.53122 15.74783 82.37232 -7.02192 -5.06639 46.36727 -2.4982 -14.23697 14.33993 -88.89743 -10.55705 5.97205 12.71378 10.09222 12.1223 -13.23484 -4.65046 -2.55564 -8.50302 15.95391 6.93542 16.0488 -27.78263 8.92557 6.76752 15.55162
0.2297 0.57063 0.13009 825.89401 0 -6.36991 -58.0297 7.63655 2.8442 -11.60347 5.57616 4.7846 54.90408 -16.75536 24.20936 14.89867 82.14238 -6.83626 -4.69154 54.65286 -5.08308 -15.03785 12.88513 -87.33192 -9.46752 5.62561 12.52913 10.0681 13.37771 -12.83285 -5.17113 -2.43273 -9.17285 15.63776 6.86039 16.86633 -27.47058 8.9096 6.78676 15.51543
0.22886 0.57081 0.13008 825.15986 0 -6.22539 -58.07033 7.22637 4.36008 -17.38554 5.78807 5.96143 61.52162 -18.54505 24.87569 14.13982 81.96758 -6.67673 -4.36329 62.03395 -7.17668 -15.7745 11.64673 -85.9538 -8.53793 5.31952 12.38184 10.04402 14.52413 -12.48242 -5.65211 -2.32195 -9.72244 15.36098 6.79948 17.64606 -27.20364 8.90659 6.80697 15.48708
0.22801 0.57101 0.13012 824.38918 0 -6.06201 -58.07924 6.73926 6.3899 -23.45722 6.20266 7.95814 68.39263 -21.54003 25.27321 13.38664 81.6993 -6.54618 -4.02685 69.83565 -10.50991 -16.42266 10.13863 -84.47145 -7.39033 4.95268 12.22378 10.02859 15.88656 -12.10576 -6.17873 -2.19312 -10.46599 15.06766 6.72819 18.47825 -26.90636 8.88995 6.82247 15.45371
0.22712 0.57121 0.13 823.68337 0 -5.93324 -58.06152 6.39172 7.44526 -29.32018 6.22416 8.32978 75.10199 -22.17394 26.26817 12.58621 81.60675 -6.33749 -3.68569 77.17373 -11.4032 -17.29551 9.10836 -83.12659 -6.63664 4.69851 12.06976 9.99447 16.83332 -11.75991 -6.62527 -2.09734 -10.84981 14.79043 6.67271 19.21461 -26.65268 8.89654 6.84788 15.42733
0.22613 0.57136 0.12948 823.16354 0 -5.90295 -58.07235 6.47103 5.60367 -34.25211 5.05349 3.90166 81.10074 -15.7813 28.89088 11.58936 82.03588 -5.93311 -3.34104 82.84776 -5.08462 -18.78551 9.52473 -82.19805 -7.06443 4.77715 11.95075 9.89994 16.51374 -11.52404 -6.83374 -2.10268 -10.113 14.57821 6.66556 19.67244 -26.54032 8.9721 6.89993 15.4239
0.22509 0.57151 0.12881 822.71137 0 -5.90855 -58.06907 6.68904 2.79929 -38.90094 3.50749 -2.12413 86.85323 -7.07035 32.10323 10.57264 82.64082 -5.45147 -2.99775 87.98095 3.63506 -20.48651 10.42523 -81.42918 -7.89009 4.97 11.83762 9.78805 15.78224 -11.32221 -6.95947 -2.14096 -9.02043 14.38485 6.67563 20.03191 -26.47484 9.07178 6.96203 15.428
